<svg width="90" height="37" viewBox="0 0 90 37" fill="none" xmlns="http://www.w3.org/2000/svg">
<path d="M7.87294 23.067C10.8729 23.067 12.9849 21.483 13.7289 18.675L15.3609 18.627V24.531C15.3609 25.371 15.6009 25.611 16.2729 25.611H18.5289C19.2249 25.611 19.4409 25.371 19.4409 24.531V9.74699C19.4409 8.90699 19.2249 8.66699 18.5289 8.66699H16.2729C15.6009 8.66699 15.3609 8.90699 15.3609 9.74699V14.979L13.8729 15.027C13.3689 11.739 11.1609 9.84299 7.87294 9.84299C4.15294 9.84299 1.77694 12.339 1.77694 16.467C1.77694 20.595 4.15294 23.067 7.87294 23.067ZM20.5929 24.291C20.5929 25.131 20.8329 25.371 21.5049 25.371H23.7609C24.4569 25.371 24.6729 25.131 24.6729 24.291V9.50699C24.6729 8.66699 24.4569 8.42699 23.7609 8.42699H21.5049C20.8329 8.42699 20.5929 8.66699 20.5929 9.50699V24.291ZM7.87294 19.419C6.62494 19.419 5.47294 18.459 5.47294 16.467C5.47294 14.451 6.62494 13.491 7.87294 13.491C9.12094 13.491 10.2969 14.427 10.2969 16.467C10.2969 18.459 9.14494 19.419 7.87294 19.419ZM33.6795 20.427C38.2155 20.427 40.6155 17.499 40.6155 14.067C40.6155 10.635 38.2155 7.70699 33.6795 7.70699C29.1435 7.70699 26.7435 10.635 26.7435 14.067C26.7435 17.499 29.1435 20.427 33.6795 20.427ZM40.6875 22.443C40.6875 21.603 40.4715 21.363 39.7755 21.363H37.4715C36.7995 21.363 36.5595 21.603 36.5595 22.443V23.475C36.5595 24.411 36.2955 24.627 35.7435 24.939L31.6635 27.147C31.2555 27.363 31.1835 27.699 31.4235 28.131L32.5275 30.099C32.7915 30.555 33.0555 30.699 33.6315 30.339L38.6475 27.387L43.6155 30.099C44.1915 30.411 44.4555 30.315 44.7195 29.859L45.8235 27.891C46.0635 27.459 45.9915 27.123 45.5835 26.907L41.5035 24.699C40.9515 24.387 40.6875 24.171 40.6875 23.235V22.443ZM42.4155 19.731C42.4155 20.571 42.6555 20.811 43.3275 20.811H45.5835C46.2795 20.811 46.4955 20.571 46.4955 19.731V9.26699C46.4955 8.42699 46.2795 8.18699 45.5835 8.18699H43.3275C42.6555 8.18699 42.4155 8.42699 42.4155 9.26699V19.731ZM33.6795 16.779C31.5915 16.779 30.6795 15.483 30.6795 14.067C30.6795 12.675 31.5915 11.355 33.6795 11.355C35.7675 11.355 36.6795 12.675 36.6795 14.067C36.6795 15.483 35.7675 16.779 33.6795 16.779ZM64.7096 19.539C65.2856 19.539 65.5016 19.395 65.5016 18.843V17.211C65.5016 16.659 65.2856 16.515 64.7096 16.515L50.0216 16.755C49.4456 16.755 49.2296 16.899 49.2296 17.451V19.083C49.2296 19.635 49.4456 19.779 50.0216 19.779L55.3256 19.707V20.571L50.4056 20.643C49.9256 20.643 49.7816 20.715 49.7816 21.075V22.947C49.7816 23.259 49.9256 23.331 50.4056 23.331L60.7976 23.091V23.955L51.1736 24.411C50.4296 24.435 50.2376 24.603 50.2616 25.347L50.4056 29.355C50.4296 30.099 50.5736 30.291 51.3176 30.267L63.6536 30.027C64.2296 30.027 64.3976 29.883 64.3976 29.331V28.035C64.3976 27.483 64.2296 27.291 63.6536 27.315L54.3896 27.555V26.619L63.8456 26.187C64.5896 26.163 64.6856 25.995 64.7576 25.299L64.9736 21.315C65.0456 20.571 64.8056 20.403 64.0616 20.403L59.4056 20.499V19.635L64.7096 19.539ZM60.9896 14.499C60.9656 15.339 61.2296 15.579 61.9016 15.579H64.2776C64.9736 15.579 65.1656 15.339 65.1896 14.499L65.4056 8.78699C65.4296 7.94699 65.2376 7.68299 64.4936 7.70699L58.1576 7.82699C57.5816 7.82699 57.3656 7.97099 57.3656 8.52299V10.539C57.3656 11.091 57.5816 11.235 58.1576 11.235L61.0856 11.187L60.9896 14.499ZM52.3736 14.739C52.3496 15.579 52.6136 15.819 53.2856 15.819H55.3016C55.9976 15.819 56.1896 15.579 56.2136 14.739L56.4056 9.62699C56.4296 8.78699 56.2376 8.52299 55.4936 8.54699L49.8776 8.66699C49.3016 8.69099 49.0856 8.81099 49.0856 9.36299V11.379C49.0856 11.931 49.3016 12.099 49.8776 12.075L52.4456 12.027L52.3736 14.739ZM84.0969 30.027C84.7689 30.003 84.9849 29.763 85.0089 29.211L85.2249 22.299C85.2489 21.651 84.9129 21.339 84.1929 21.363L72.6969 21.603C72.0009 21.627 71.8809 21.891 71.9049 22.539L72.1209 29.451C72.1449 30.003 72.3609 30.291 73.0329 30.267L84.0969 30.027ZM80.3769 8.90699C80.3769 8.06699 80.2809 7.92299 79.5849 7.94699L68.8809 8.18699C68.2089 8.21099 68.0889 8.30699 68.0889 9.14699V10.875C68.0889 11.715 68.2089 11.859 68.8809 11.835L72.2169 11.763V12.891C72.2169 13.467 72.2409 14.019 71.8329 14.379L67.9689 17.595C67.6089 17.907 67.5849 18.195 67.8489 18.507L69.5529 20.331C69.9129 20.691 70.1769 20.619 70.5369 20.307L74.2569 17.283L78.1209 20.067C78.5049 20.331 78.8169 20.475 79.1049 20.091L80.6649 18.099C80.9289 17.739 80.9529 17.475 80.5449 17.187L76.6809 14.379C76.2249 14.067 76.2969 13.467 76.2969 12.891V11.667L79.5849 11.595C80.2809 11.571 80.3769 11.475 80.3769 10.635V8.90699ZM81.7689 19.011C81.7689 19.851 82.0089 20.091 82.6809 20.091H84.9369C85.6329 20.091 85.8489 19.851 85.8489 19.011V18.315L87.4569 18.267C88.0329 18.243 88.2489 18.123 88.2489 17.571V15.315C88.2489 14.763 88.0329 14.595 87.4569 14.619L85.8489 14.667V13.275L87.4569 13.227C88.0329 13.203 88.2489 13.083 88.2489 12.531V10.275C88.2489 9.72299 88.0329 9.55499 87.4569 9.57899L85.8489 9.62699V9.26699C85.8489 8.42699 85.6329 8.18699 84.9369 8.18699H82.6809C82.0089 8.18699 81.7689 8.42699 81.7689 9.26699V19.011ZM76.1049 24.747L81.0249 24.627V26.979L76.1049 27.099V24.747Z" fill="#8208CC"/>
<circle cx="7.87133" cy="15.8345" r="5.98107" fill="#8208CC"/>
<path d="M6.91985 10.4546L8.03046 13.4559L11.0318 14.5665L8.03046 15.6772L6.91985 18.6785L5.80924 15.6772L2.80786 14.5665L5.80924 13.4559L6.91985 10.4546Z" fill="white"/>
<circle cx="33.1667" cy="14.08" r="6.26696" fill="#8208CC"/>
<path d="M32.1699 8.4429L33.3336 11.5877L36.4784 12.7514L33.3336 13.9151L32.1699 17.06L31.0062 13.9151L27.8613 12.7514L31.0062 11.5877L32.1699 8.4429Z" fill="white"/>
</svg>
