<svg width="201" height="203" viewBox="0 0 201 203" fill="none" xmlns="http://www.w3.org/2000/svg">
<path d="M150.699 6.06262C154.214 8.26939 160.054 15.0173 160.054 19.3486L160.762 20.7637C163.187 25.6135 166.32 31.6175 167.798 37.0371C169.404 42.9271 172.605 48.3303 174.205 54.3325C174.732 56.3071 176.037 57.8638 176.485 59.8356C177.076 62.4377 177.341 65.0987 178.45 67.5399C180.81 72.7307 180.341 79.1168 181.438 84.5995C182.786 91.341 183.258 98.1434 184.268 104.961C186.06 117.059 184.924 130.177 182.853 142.146C181.737 148.595 178.369 154.527 175.935 160.503C173.115 167.424 168.478 174.717 163.946 180.628C152.92 195.01 133.615 196.631 116.894 199.417C103.519 201.647 89.382 200.479 75.8571 200.479C66.5351 200.479 57.3475 200.627 48.2631 198.356C38.1795 195.835 16.4238 190.136 16.4238 176.894C16.4238 169.522 17.0424 158.929 21.7304 152.798C23.2788 150.774 25.737 148.139 28.2948 147.57C30.4875 147.083 33.9157 147.78 35.8025 146.313C37.1013 145.303 36.2349 140.12 36.2349 138.766C36.2349 133.679 36.0208 128.768 35.5274 123.711C34.6285 114.497 33.995 104.354 31.9897 95.3305C27.8949 76.9038 28.7831 57.634 31.1249 39.1597C31.9005 33.041 34.5177 26.5529 37.8072 21.314C39.4392 18.7149 43.4626 13.6883 46.848 13.6883C56.7451 13.6883 66.4843 12.6083 75.5034 16.9509C79.2192 18.74 81.5124 22.5181 84.8979 24.6945C86.453 25.6942 91.6895 22.9662 93.2312 22.5719C98.2791 21.2805 103.674 20.6528 108.797 19.6631C110.533 19.3277 114.436 20.3134 114.811 18.248C116.342 9.82876 129.458 2.36769 137.413 2.36769C143.002 2.36769 146.095 3.1719 150.699 6.06262Z" fill="url(#paint0_linear_2_561)" fill-opacity="0.75" stroke="#F3003A" stroke-width="4" stroke-linecap="round"/>
<path d="M118.31 97.178C107.126 97.178 102.036 110.355 102.036 119.78C102.036 123.249 103.11 125.846 105.574 128.31C108.839 131.575 114.017 131.092 116.894 133.97" stroke="#F3003A" stroke-width="3" stroke-linecap="round"/>
<path d="M56.046 107.791C60.3374 107.791 64.4207 107.541 68.2314 109.756C72.2231 112.077 76.044 117.167 76.5254 121.981C77.4346 131.074 72.5789 134.548 65.244 138.215" stroke="#F3003A" stroke-width="3" stroke-linecap="round"/>
<path d="M104.866 153.074C90.3381 153.074 87.8853 167.391 87.8853 179.253C87.8853 184.22 87.611 186.026 91.2658 189.315C92.6788 190.587 94.7574 190.909 96.3758 191.988" stroke="#F3003A" stroke-width="3" stroke-linecap="round"/>
<circle cx="60.6944" cy="74.024" r="20.2886" fill="#FF7676"/>
<circle cx="131.711" cy="67.2074" r="20.2886" fill="#FF7676"/>
<circle cx="69.7472" cy="55.9527" r="6.88745" fill="black"/>
<circle cx="118.309" cy="51.7075" r="6.88745" fill="black"/>
<path d="M68.5872 49.8693L69.8026 53.1539L73.0872 54.3693L69.8026 55.5847L68.5872 58.8693L67.3717 55.5847L64.0872 54.3693L67.3717 53.1539L68.5872 49.8693Z" fill="white"/>
<path d="M117.001 45.5065L118.216 48.7911L121.501 50.0065L118.216 51.2219L117.001 54.5065L115.785 51.2219L112.501 50.0065L115.785 48.7911L117.001 45.5065Z" fill="white"/>
<path d="M81.2103 63.7296C81.2103 64.2162 81.7415 64.686 82.0925 64.9732C82.5342 65.3345 83.1082 65.3944 83.6657 65.4515C85.5192 65.6416 86.8806 65.5107 88.5764 64.7075C89.2625 64.3824 89.9748 64.0293 90.6809 63.7509C91.3451 63.4889 92.0569 63.06 92.7855 63.06C93.2181 63.06 93.5334 62.9158 93.976 63.0387C94.3817 63.1514 94.5644 63.6092 94.9857 63.7296C95.2394 63.8021 95.6486 64.1976 95.8945 64.3567C96.3504 64.6517 96.8502 65.0394 97.3773 65.1858C98.5893 65.5225 99.6919 65.6362 100.965 65.5419C101.838 65.4772 103.226 65.2732 103.787 64.5162C104.055 64.1537 104.467 63.5949 104.839 63.347" stroke="#F3003A" stroke-width="3" stroke-linecap="round"/>
<path d="M16.4167 24.6132C16.5595 23.4709 23.428 27.5756 24.3895 27.8961" stroke="#FFB185" stroke-width="3" stroke-linecap="round"/>
<path d="M14.5408 37.2758C16.9636 37.2758 19.2343 37.7448 21.5755 37.7448" stroke="#FFB185" stroke-width="3" stroke-linecap="round"/>
<defs>
<linearGradient id="paint0_linear_2_561" x1="100.792" y1="2.36769" x2="100.792" y2="200.784" gradientUnits="userSpaceOnUse">
<stop offset="0.0729167" stop-color="#FFBE9A"/>
<stop offset="1" stop-color="#FF5959"/>
</linearGradient>
</defs>
</svg>
