<svg width="202" height="201" viewBox="0 0 202 201" fill="none" xmlns="http://www.w3.org/2000/svg">
<path d="M6.09972 50.1671C8.28751 46.778 14.9774 41.1455 19.2715 41.1455L20.6744 40.4632C25.4824 38.1249 31.4348 35.1035 36.8078 33.6781C42.6471 32.1291 48.0038 29.043 53.9544 27.4995C55.912 26.9918 57.4553 25.7332 59.4102 25.301C61.9898 24.7307 64.628 24.4758 67.0482 23.4057C72.1943 21.1304 78.5255 21.5823 83.961 20.5249C90.6445 19.2247 97.3885 18.7696 104.147 17.7957C116.142 16.0673 129.146 17.1626 141.013 19.1603C147.406 20.2367 153.287 23.484 159.211 25.8317C166.073 28.5507 173.303 33.0226 179.164 37.3929C193.422 48.0257 195.028 66.6419 197.791 82.7659C200.001 95.6639 198.843 109.297 198.843 122.339C198.843 131.329 198.991 140.189 196.739 148.949C194.24 158.673 188.589 179.653 175.462 179.653C168.153 179.653 157.651 179.056 151.573 174.535C149.566 173.042 146.954 170.672 146.39 168.205C145.907 166.091 146.598 162.785 145.143 160.965C144.142 159.713 139.004 160.548 137.661 160.548C132.618 160.548 127.749 160.755 122.736 161.23C113.602 162.097 103.546 162.708 94.5997 164.642C76.3315 168.591 57.2274 167.734 38.9121 165.476C32.846 164.728 26.4138 162.204 21.2199 159.032C18.6432 157.458 13.6598 153.578 13.6598 150.314C13.6598 140.77 12.5891 131.378 16.8943 122.68C18.668 119.097 22.4137 116.886 24.5713 113.621C25.5624 112.121 22.8579 107.072 22.467 105.585C21.1867 100.717 20.5644 95.5149 19.5832 90.5744C19.2507 88.9001 20.2279 85.137 18.1803 84.7749C9.83347 83.2987 2.43658 70.6502 2.43658 62.9792C2.43658 57.5891 3.23387 54.6066 6.09972 50.1671Z" fill="url(#paint0_linear_2_565)" fill-opacity="0.75" stroke="#1AACFF" stroke-width="4" stroke-linecap="round"/>
<ellipse cx="61.6222" cy="139.65" rx="16.8758" ry="9.91398" transform="rotate(-90 61.6222 139.65)" fill="#53F5FF"/>
<ellipse cx="57.5098" cy="71.1673" rx="16.8758" ry="9.91398" transform="rotate(-90 57.5098 71.1673)" fill="#53F5FF"/>
<path d="M96.4313 81.4013C96.4313 92.1861 109.495 97.0942 118.839 97.0942C122.279 97.0942 124.853 96.0587 127.295 93.6827C130.533 90.5337 130.054 85.541 132.907 82.7659" stroke="#1AACFF" stroke-width="3" stroke-linecap="round"/>
<path d="M106.953 141.444C106.953 137.305 106.705 133.368 108.902 129.693C111.202 125.844 116.249 122.159 121.021 121.695C130.036 120.818 133.48 125.501 137.116 132.574" stroke="#1AACFF" stroke-width="3" stroke-linecap="round"/>
<path d="M151.846 94.365C151.846 108.375 166.04 110.74 177.8 110.74C182.724 110.74 184.515 111.005 187.776 107.48C189.037 106.118 189.356 104.113 190.426 102.553" stroke="#1AACFF" stroke-width="3" stroke-linecap="round"/>
<path d="M52.6311 71.1673C51.6603 73.41 51.7041 76.0396 51.111 78.3998C50.3284 81.514 48.9959 84.5371 47.7402 87.4966C47.1929 88.7866 46.812 92.5125 45.493 93.154" stroke="black" stroke-width="4" stroke-linecap="round"/>
<path d="M40.7343 74.6389C43.292 78.9362 47.3729 83.1535 50.9787 86.6609C52.6261 88.2632 53.6916 92.2233 55.6053 93.154" stroke="black" stroke-width="4" stroke-linecap="round"/>
<path d="M57.0925 114.225C56.1217 116.467 56.1655 119.097 55.5723 121.457C54.7897 124.571 53.4572 127.594 52.2016 130.554C51.6543 131.844 51.2734 135.57 49.9544 136.211" stroke="black" stroke-width="4" stroke-linecap="round"/>
<path d="M45.1956 117.696C47.7534 121.993 51.8342 126.211 55.4401 129.718C57.0874 131.32 58.1529 135.281 60.0666 136.211" stroke="black" stroke-width="4" stroke-linecap="round"/>
<path d="M65.1228 105.966C65.1228 108.386 66.3187 112.833 69.4675 112.833L70.5537 113.361C70.8898 114.015 71.9114 113.159 71.9114 114.154L71.9114 116.399L71.9114 123.53C71.9114 125.75 71.4773 128.193 70.4028 130.134C69.3416 132.051 66.6044 133.308 65.9374 135.416C65.2932 137.453 63.371 139.06 62.6185 141.037C61.5243 143.91 60.6424 146.719 60.1746 149.753C59.8989 151.54 59.5727 153.423 59.4353 155.226C59.2837 157.218 58.407 159.22 58.3341 161.169C58.2969 162.163 58.5998 163.475 58.2737 164.427C58.1575 164.766 57.2296 164.603 56.9612 164.603L56.9136 164.603C55.2607 164.603 53.6653 164.603 52.0281 164.809C50.011 165.062 47.8798 164.867 45.8429 164.867C42.1295 164.867 38.4369 165.131 34.7245 165.131C29.5835 165.131 24.3347 164.834 19.201 165.146C16.3991 165.316 13.8214 165.96 11.1451 166.716C9.70026 167.124 8.22228 167.645 7.69044 169.093C7.22944 170.349 7.62472 171.938 8.09776 173.114C8.88434 175.069 9.66543 175.612 11.3412 176.753C12.1531 177.306 12.9983 177.408 13.9662 177.56C15.9818 177.878 18.0681 178.368 20.0459 178.866C24.1208 179.894 28.4025 180.721 32.537 181.508C41.4871 183.211 51.0621 184.075 60.1746 184.149L60.7361 184.154C71.8457 184.244 82.7876 184.333 93.9068 183.679C97.6864 183.457 102.295 183.365 105.704 181.508C106.765 180.93 108.027 180.698 108.027 179.395C108.027 175.732 106.205 173.515 103.004 171.867C101.224 170.951 99.0076 170.931 97.1654 170.15C95.1038 169.276 92.4099 168.941 90.2107 168.418C86.4434 167.523 82.8394 166.716 78.9717 166.716C77.9227 166.716 77.6139 160.855 77.6139 159.981C77.6139 156.413 77.2751 152.585 77.9458 149.078C78.462 146.379 79.7499 144.153 80.8725 141.682C81.4507 140.409 82.4872 139.254 83.1656 138.028C83.9355 136.638 84.3602 134.884 84.9457 133.377C85.4997 131.95 85.5242 130.357 86.1526 128.96C86.6574 127.838 86.0864 126.428 86.3638 125.247C87.1376 121.954 86.4009 118.282 86.8315 114.931L86.8359 114.897C86.9504 114.005 87.0469 113.253 87.9327 112.774C88.6463 112.389 89.6348 111.479 89.8336 110.705C90.1224 109.582 90.6482 108.818 90.6482 107.609C90.6482 106.298 90.7817 104.918 90.6331 103.618C90.377 101.375 86.8977 99.3266 84.81 99.1128C81.8985 98.8147 78.9563 99.3623 76.045 99.3623C73.6064 99.3623 70.8655 99.6376 68.6529 100.683C66.3903 101.752 65.1228 103.404 65.1228 105.966Z" fill="white" stroke="#1AACFF" stroke-width="3" stroke-linecap="round"/>
<path fill-rule="evenodd" clip-rule="evenodd" d="M69.1109 184.21C77.3732 184.242 85.5904 184.168 93.9068 183.679C94.2361 183.66 94.5718 183.642 94.9124 183.623C98.4804 183.428 102.592 183.203 105.704 181.508C105.927 181.386 106.159 181.28 106.386 181.176C107.24 180.785 108.027 180.425 108.027 179.395C108.027 175.732 106.205 173.515 103.004 171.867C102.042 171.372 100.952 171.138 99.8628 170.905C98.9371 170.707 98.0117 170.509 97.1653 170.15C95.7245 169.539 93.9749 169.192 92.3012 168.859C91.58 168.716 90.8729 168.576 90.2107 168.418C86.4433 167.523 82.8394 166.716 78.9716 166.716C77.9226 166.716 77.6139 160.855 77.6139 159.981C77.6139 159.091 77.5929 158.186 77.5716 157.273C77.5077 154.524 77.4423 151.71 77.9458 149.078C78.348 146.975 79.2187 145.16 80.1147 143.291C80.3686 142.762 80.6246 142.228 80.8725 141.682C81.2023 140.956 81.6811 140.269 82.1575 139.584C82.5165 139.069 82.8741 138.555 83.1656 138.028C83.6718 137.114 84.0288 136.043 84.3804 134.988C84.5635 134.438 84.7452 133.893 84.9457 133.377C85.2043 132.711 85.3475 132.009 85.4906 131.307C85.6541 130.506 85.8175 129.705 86.1526 128.96C86.4348 128.332 86.3807 127.615 86.3267 126.898C86.2841 126.333 86.2415 125.768 86.3638 125.247C86.8015 123.385 86.7572 120.982 86.7141 118.64C86.681 116.841 86.6485 115.078 86.8356 113.623C86.8356 113.623 84.7493 113.953 82.4434 114.225C82.6607 115.492 82.5938 116.898 82.5289 118.26C82.4985 118.898 82.4685 119.527 82.4685 120.127C82.4685 121.406 82.3101 122.603 82.1465 123.838C82.1188 124.048 82.0909 124.259 82.0636 124.471C81.9856 125.078 81.8222 125.689 81.6593 126.299C81.4588 127.049 81.2588 127.798 81.219 128.534C81.1766 129.318 80.9441 130.117 80.7159 130.902C80.6003 131.299 80.4858 131.692 80.3976 132.079C80.2612 132.675 79.9652 133.197 79.6664 133.723C79.4578 134.09 79.248 134.459 79.0902 134.858C78.931 135.261 78.6202 135.628 78.3162 135.986C78.1318 136.204 77.9499 136.419 77.8059 136.636C77.6183 136.92 77.4682 137.228 77.3177 137.537C77.1721 137.836 77.0262 138.136 76.8457 138.415C76.6533 138.712 76.4126 139.041 76.1592 139.387C75.4963 140.294 74.7459 141.32 74.5433 142.207C74.3527 143.041 73.89 143.86 73.4355 144.665C73.1601 145.153 72.8877 145.635 72.6806 146.112C72.3335 146.912 72.1396 147.705 71.9454 148.499C71.8219 149.004 71.6983 149.509 71.5352 150.017C71.1573 151.193 70.8414 153.03 70.8063 154.26C70.7875 154.918 70.6405 155.55 70.4938 156.18C70.3375 156.852 70.1815 157.522 70.1815 158.221L70.1815 158.293L70.1815 158.293C70.1814 160.648 70.1814 162.918 70.9104 165.187C70.9699 165.372 71.0245 165.555 71.0783 165.734C71.3419 166.612 71.5842 167.42 72.2641 168.147C72.8139 168.735 73.3991 169.198 73.9968 169.671C74.3192 169.926 74.6453 170.183 74.9714 170.465C75.4821 170.907 76.1488 171.233 76.8045 171.554C77.214 171.755 77.6192 171.953 77.9795 172.176C78.6094 172.566 79.947 173.965 78.72 174.562C77.4511 175.179 75.9091 175.732 74.4623 175.732C74.1167 175.732 73.8115 175.835 73.508 175.937C73.2257 176.032 72.9448 176.127 72.6343 176.137C72.1675 176.154 71.7061 176.195 71.2454 176.237C70.7378 176.283 70.2311 176.328 69.7187 176.34C68.8295 176.36 67.8053 176.563 66.9651 176.835C66.5928 176.956 66.2083 176.956 65.823 176.955C65.4688 176.955 65.1138 176.955 64.7669 177.049C63.6668 177.346 61.958 177.353 60.81 177.353C60.2643 177.353 57.3118 177.799 58.311 178.771C58.934 179.377 59.8839 179.672 60.7059 179.795C62.0338 179.994 63.4958 180.37 64.8135 180.71L64.9751 180.751C65.1231 180.789 65.2709 180.826 65.418 180.862C66.4373 181.113 67.4242 181.356 68.2031 182.113C68.8948 182.786 69.4665 183.589 69.1109 184.21Z" fill="#3DF3FF"/>
<path fill-rule="evenodd" clip-rule="evenodd" d="M43.0484 183.1C42.784 182.833 42.5586 182.655 42.3911 182.608C41.848 182.457 41.3905 182.144 40.9321 181.83C40.6253 181.619 40.3181 181.409 39.9846 181.247C39.555 181.038 39.2315 180.765 38.8967 180.483C38.7447 180.355 38.5903 180.225 38.4227 180.099C38.1386 179.884 37.8185 179.736 37.4986 179.589C37.1284 179.419 36.7584 179.248 36.4443 178.973C35.5303 178.173 34.2951 177.338 33.2279 176.745C32.952 176.592 32.7287 176.32 32.5001 176.042C32.1568 175.625 31.8015 175.193 31.2379 175.124C30.2084 174.999 31.0674 172.95 31.3536 172.592C32.0888 171.673 33.9727 171.371 35.2753 171.163C35.4719 171.132 35.6553 171.102 35.8195 171.073C37.9755 170.692 40.0009 170.757 42.1079 170.824C42.6733 170.842 43.2445 170.861 43.8258 170.871C44.8694 170.888 45.9086 170.98 46.9461 171.072C48.0974 171.174 49.2466 171.276 50.3974 171.276C51.2612 171.276 52.116 171.479 52.9708 171.682C53.7765 171.873 54.5821 172.065 55.3955 172.086C57.7115 172.147 60.5905 172.153 62.4761 170.668C63.551 169.822 65.707 168.117 64.9289 166.414C64.6136 165.724 64.673 164.783 64.7276 163.918C64.7476 163.602 64.7669 163.295 64.7669 163.015C64.7669 161.829 64.8501 160.521 64.9868 159.324C65.1455 157.934 65.3209 156.551 65.4962 155.168C65.6714 153.787 65.8465 152.405 66.0049 151.019C66.1457 149.787 66.4415 148.517 66.7299 147.279C66.7858 147.039 66.8415 146.8 66.8958 146.562C67.1832 145.304 67.5571 143.743 68.2031 142.612C68.4791 142.129 68.7674 141.644 69.0571 141.157C69.3494 140.666 69.6432 140.172 69.927 139.675C70.1403 139.302 70.4168 138.963 70.6937 138.623C71.048 138.189 71.4031 137.754 71.6278 137.244C72.0665 136.248 72.7083 135.331 73.3504 134.413C74.0707 133.384 74.7913 132.354 75.226 131.212C75.377 130.816 75.5399 130.417 75.7041 130.014C76.3685 128.388 77.054 126.709 77.054 124.932C77.054 124.415 77.1052 123.892 77.1569 123.365C77.2093 122.83 77.2622 122.29 77.2622 121.748C77.2622 121.234 77.211 120.731 77.1593 120.224C77.1068 119.709 77.054 119.19 77.054 118.653C77.054 117.555 76.9724 116.532 76.8573 115.468C76.82 115.124 76.7561 114.785 76.6828 114.449C74.2305 114.211 71.9114 113.623 71.9114 113.623L71.9114 116.399L71.9114 123.53C71.9114 125.75 71.4773 128.193 70.4028 130.134C69.9316 130.985 69.1298 131.706 68.3256 132.43C67.3188 133.335 66.3082 134.244 65.9374 135.416C65.5991 136.486 64.9084 137.437 64.2198 138.385C63.597 139.243 62.9758 140.098 62.6185 141.037C61.5243 143.91 60.6424 146.719 60.1746 149.753C60.1283 150.053 60.0805 150.356 60.0325 150.661C59.7947 152.17 59.5496 153.726 59.4353 155.226C59.3629 156.177 59.1253 157.13 58.8887 158.079C58.6298 159.117 58.3722 160.151 58.3341 161.169C58.3213 161.512 58.3488 161.892 58.3771 162.282C58.431 163.025 58.4875 163.803 58.2737 164.427C58.1808 164.698 57.5689 164.648 57.1902 164.617C57.0953 164.61 57.015 164.603 56.9612 164.603L56.9136 164.603C55.2607 164.603 53.6653 164.603 52.0281 164.809C50.6191 164.985 49.1544 164.944 47.7051 164.903C47.0796 164.885 46.4569 164.867 45.8429 164.867C43.9861 164.867 42.1345 164.933 40.283 164.999C38.4317 165.065 36.5806 165.131 34.7245 165.131C33.0423 165.131 31.3485 165.1 29.651 165.068C26.1608 165.002 22.6549 164.936 19.201 165.146C16.3991 165.316 13.8214 165.96 11.1451 166.716C9.70026 167.124 8.22228 167.645 7.69044 169.093C7.22944 170.349 7.62472 171.938 8.09776 173.114C8.88434 175.069 9.66543 175.612 11.3412 176.753C12.1 177.27 12.8878 177.392 13.7778 177.531C13.8401 177.541 13.9029 177.55 13.9662 177.56C15.9818 177.878 18.0681 178.368 20.0459 178.866C24.1208 179.894 28.4025 180.721 32.537 181.508C35.9693 182.161 39.4936 182.691 43.0484 183.1Z" fill="#FF5290"/>
<path fill-rule="evenodd" clip-rule="evenodd" d="M69.1109 184.21C69.4666 183.589 68.8948 182.786 68.2031 182.113C67.4243 181.356 66.4374 181.113 65.418 180.862C65.2709 180.826 65.1231 180.789 64.9752 180.751C64.9216 180.738 64.8677 180.724 64.8136 180.71C63.4958 180.37 62.0339 179.994 60.706 179.795C59.884 179.672 58.934 179.377 58.311 178.771C57.3119 177.799 60.2643 177.353 60.8101 177.353C61.958 177.353 63.6669 177.346 64.7669 177.049C65.1139 176.955 65.4688 176.955 65.823 176.955C66.2084 176.956 66.5928 176.956 66.9652 176.835C67.8053 176.563 68.8295 176.36 69.7188 176.34C70.2311 176.328 70.7379 176.283 71.2454 176.237C71.7061 176.195 72.1675 176.154 72.6343 176.137C72.9449 176.127 73.2257 176.032 73.5081 175.937C73.8115 175.835 74.1167 175.732 74.4624 175.732C75.9091 175.732 77.4512 175.179 78.72 174.562C79.947 173.965 78.6095 172.566 77.9795 172.176C77.6193 171.953 77.214 171.755 76.8045 171.554C76.1488 171.233 75.4821 170.907 74.9714 170.465C74.6453 170.183 74.3192 169.926 73.9968 169.671C73.3992 169.198 72.814 168.735 72.2641 168.147C71.5843 167.42 71.342 166.612 71.0784 165.734C71.0246 165.555 70.9699 165.372 70.9105 165.187C70.1814 162.918 70.1815 160.648 70.1816 158.293L70.1816 158.221C70.1816 157.522 70.3375 156.852 70.4939 156.18C70.6405 155.55 70.7875 154.918 70.8063 154.26C70.8415 153.03 71.1574 151.193 71.5352 150.017C71.6984 149.509 71.822 149.004 71.9455 148.499C72.1397 147.705 72.3336 146.912 72.6806 146.112C72.8878 145.635 73.1602 145.153 73.4356 144.665C73.8901 143.86 74.3527 143.041 74.5433 142.207C74.7459 141.32 75.4964 140.294 76.1592 139.387C76.4127 139.041 76.6534 138.712 76.8457 138.415C77.0263 138.136 77.1722 137.836 77.3178 137.537C77.4682 137.228 77.6183 136.92 77.806 136.636C77.9499 136.419 78.1318 136.204 78.3162 135.986C78.6202 135.628 78.9311 135.261 79.0902 134.858C79.248 134.459 79.4579 134.09 79.6664 133.723C79.9652 133.197 80.2613 132.675 80.3976 132.079C80.4858 131.692 80.6004 131.299 80.7159 130.902C80.9442 130.117 81.1766 129.318 81.2191 128.534C81.2589 127.798 81.4588 127.049 81.6593 126.299C81.8223 125.689 81.9856 125.078 82.0637 124.471C82.0909 124.259 82.1188 124.048 82.1466 123.839C82.3101 122.603 82.4686 121.406 82.4686 120.127C82.4686 119.527 82.4985 118.898 82.529 118.26C82.5938 116.898 82.6608 115.492 82.4435 114.225C81.3929 114.348 80.2968 114.46 79.3316 114.522C78.5029 114.576 77.5839 114.536 76.6828 114.449C76.7561 114.785 76.82 115.124 76.8573 115.468C76.9724 116.532 77.054 117.555 77.054 118.653C77.054 119.19 77.1068 119.709 77.1593 120.224C77.2109 120.731 77.2622 121.234 77.2622 121.748C77.2622 122.29 77.2093 122.83 77.1569 123.365C77.1052 123.892 77.054 124.415 77.054 124.932C77.054 126.709 76.3685 128.388 75.7041 130.014C75.5399 130.417 75.3769 130.816 75.226 131.212C74.7913 132.354 74.0707 133.384 73.3504 134.413C72.7083 135.331 72.0665 136.248 71.6278 137.244C71.4031 137.754 71.048 138.189 70.6937 138.623C70.4168 138.963 70.1403 139.302 69.927 139.675C69.6431 140.172 69.3494 140.666 69.057 141.157C68.7674 141.644 68.4791 142.129 68.2031 142.612C67.5571 143.743 67.1832 145.304 66.8958 146.562C66.8415 146.8 66.7858 147.039 66.7299 147.279C66.4415 148.517 66.1456 149.787 66.0049 151.019C65.8465 152.405 65.6714 153.787 65.4962 155.168C65.3209 156.551 65.1455 157.934 64.9868 159.324C64.8501 160.521 64.7669 161.829 64.7669 163.015C64.7669 163.295 64.7476 163.602 64.7276 163.918C64.673 164.783 64.6135 165.724 64.9289 166.414C65.7069 168.117 63.551 169.822 62.4761 170.668C60.5905 172.153 57.7114 172.147 55.3955 172.086C54.5821 172.065 53.7764 171.873 52.9708 171.682C52.116 171.479 51.2612 171.276 50.3974 171.276C49.2466 171.276 48.0974 171.174 46.9461 171.072C45.9086 170.98 44.8694 170.888 43.8258 170.871C43.2445 170.861 42.6732 170.842 42.1078 170.824C40.0009 170.757 37.9755 170.692 35.8195 171.073C35.6553 171.102 35.4719 171.132 35.2753 171.163C33.9727 171.371 32.0888 171.673 31.3536 172.592C31.0674 172.95 30.2084 174.999 31.2379 175.124C31.8015 175.193 32.1568 175.625 32.5001 176.042C32.7287 176.32 32.952 176.592 33.2279 176.745C34.2951 177.338 35.5302 178.173 36.4443 178.973C36.7584 179.248 37.1284 179.419 37.4986 179.589C37.8185 179.736 38.1386 179.884 38.4227 180.099C38.5903 180.226 38.7447 180.355 38.8967 180.483C39.2315 180.765 39.555 181.038 39.9846 181.247C40.3181 181.409 40.6253 181.619 40.9321 181.83C41.3905 182.144 41.848 182.457 42.3911 182.608C42.5586 182.655 42.784 182.833 43.0484 183.1C48.763 183.758 54.5567 184.104 60.1745 184.149L60.7361 184.154C63.5365 184.176 66.3263 184.199 69.1109 184.21Z" fill="#FFF066"/>
<path d="M65.1228 105.966C65.1228 108.386 66.3187 112.833 69.4675 112.833L70.5537 113.361C70.8898 114.015 71.9114 113.159 71.9114 114.154L71.9114 116.399L71.9114 123.53C71.9114 125.75 71.4773 128.193 70.4028 130.134C69.3416 132.051 66.6044 133.308 65.9374 135.416C65.2932 137.453 63.371 139.06 62.6185 141.037C61.5243 143.91 60.6424 146.719 60.1746 149.753C59.8989 151.54 59.5727 153.423 59.4353 155.226C59.2837 157.218 58.407 159.22 58.3341 161.169C58.2969 162.163 58.5998 163.475 58.2737 164.427C58.1575 164.766 57.2296 164.603 56.9612 164.603L56.9136 164.603C55.2607 164.603 53.6653 164.603 52.0281 164.809C50.011 165.062 47.8798 164.867 45.8429 164.867C42.1295 164.867 38.4369 165.131 34.7245 165.131C29.5835 165.131 24.3347 164.834 19.201 165.146C16.3991 165.316 13.8214 165.96 11.1451 166.716C9.70026 167.124 8.22228 167.645 7.69044 169.093C7.22944 170.349 7.62472 171.938 8.09776 173.114C8.88434 175.069 9.66543 175.612 11.3412 176.753C12.1531 177.306 12.9983 177.408 13.9662 177.56C15.9818 177.878 18.0681 178.368 20.0459 178.866C24.1208 179.894 28.4025 180.721 32.537 181.508C41.4871 183.211 51.0621 184.075 60.1746 184.149L60.7361 184.154C71.8457 184.244 82.7876 184.333 93.9068 183.679C97.6864 183.457 102.295 183.365 105.704 181.508C106.765 180.93 108.027 180.698 108.027 179.395C108.027 175.732 106.205 173.515 103.004 171.867C101.224 170.951 99.0076 170.931 97.1654 170.15C95.1038 169.276 92.4099 168.941 90.2107 168.418C86.4434 167.523 82.8394 166.716 78.9717 166.716C77.9227 166.716 77.6139 160.855 77.6139 159.981C77.6139 156.413 77.2751 152.585 77.9458 149.078C78.462 146.379 79.7499 144.153 80.8725 141.682C81.4507 140.409 82.4872 139.254 83.1656 138.028C83.9355 136.638 84.3602 134.884 84.9457 133.377C85.4997 131.95 85.5242 130.357 86.1526 128.96C86.6574 127.838 86.0864 126.428 86.3638 125.247C87.1376 121.954 86.4009 118.282 86.8315 114.931L86.8359 114.897C86.9504 114.005 87.0469 113.253 87.9327 112.774C88.6463 112.389 89.6348 111.479 89.8336 110.705C90.1224 109.582 90.6482 108.818 90.6482 107.609C90.6482 106.298 90.7817 104.918 90.6331 103.618C90.377 101.375 86.8977 99.3266 84.81 99.1128C81.8985 98.8147 78.9563 99.3623 76.045 99.3623C73.6064 99.3623 70.8655 99.6376 68.6529 100.683C66.3903 101.752 65.1228 103.404 65.1228 105.966Z" stroke="#1AACFF" stroke-width="3" stroke-linecap="round"/>
<path d="M26.0192 8.68915C26.773 8.85667 28.9336 11.8325 28.9336 12.6237C28.9336 13.8467 27.6601 15.1186 26.8935 15.9753C26.0468 16.9217 25.4363 17.7826 25.4363 19.0355C25.4363 20.0542 26.5424 20.6525 27.2497 21.2214C28.1347 21.9332 28.9115 22.9553 29.808 23.553" stroke="#8AF1FF" stroke-width="3" stroke-linecap="round"/>
<path d="M42.3296 9.39807C42.993 9.68139 43.6138 12.0425 43.4856 12.7277C43.1378 14.5866 42.2536 14.6928 40.7573 15.5117C40.0585 15.8941 38.3744 16.8615 38.7261 17.9154C39.0895 19.0041 40.6912 19.3641 41.152 20.4449" stroke="#8AF1FF" stroke-width="3" stroke-linecap="round"/>
<path d="M50.8846 2.56875C52.7269 2.67712 53.7672 3.92597 54.6734 5.41846C55.5455 6.85483 54.4229 8.32013 53.6371 9.49872C53.1567 10.2193 52.5334 11.9079 52.9895 12.7694C53.5116 13.7557 54.6734 13.3705 54.6734 14.8095" stroke="#8AF1FF" stroke-width="3" stroke-linecap="round"/>
<defs>
<linearGradient id="paint0_linear_2_565" x1="2.43658" y1="98.2943" x2="199.147" y2="98.2943" gradientUnits="userSpaceOnUse">
<stop offset="0.578125" stop-color="#9AFFF9"/>
<stop offset="0.890625" stop-color="#8CFFCF"/>
</linearGradient>
</defs>
</svg>
