<svg width="201" height="203" viewBox="0 0 201 203" fill="none" xmlns="http://www.w3.org/2000/svg">
<path d="M150.699 6.06262C154.214 8.26939 160.054 15.0173 160.054 19.3486L160.762 20.7637C163.187 25.6135 166.32 31.6175 167.798 37.0371C169.404 42.9271 172.605 48.3303 174.205 54.3325C174.732 56.3071 176.037 57.8638 176.485 59.8356C177.076 62.4377 177.341 65.0987 178.45 67.5399C180.81 72.7307 180.341 79.1168 181.438 84.5995C182.786 91.341 183.258 98.1434 184.268 104.961C186.06 117.059 184.924 130.177 182.853 142.146C181.737 148.595 178.369 154.527 175.935 160.503C173.115 167.424 168.478 174.717 163.946 180.628C152.92 195.01 133.615 196.631 116.894 199.417C103.519 201.647 89.382 200.479 75.8571 200.479C66.5351 200.479 57.3475 200.627 48.2631 198.356C38.1795 195.835 16.4238 190.136 16.4238 176.894C16.4238 169.522 17.0424 158.929 21.7304 152.798C23.2788 150.774 25.737 148.139 28.2948 147.57C30.4875 147.083 33.9157 147.78 35.8025 146.313C37.1013 145.303 36.2349 140.12 36.2349 138.766C36.2349 133.679 36.0208 128.768 35.5274 123.711C34.6285 114.497 33.995 104.354 31.9897 95.3305C27.8949 76.9038 28.7831 57.634 31.1249 39.1597C31.9005 33.041 34.5177 26.5529 37.8072 21.314C39.4392 18.7149 43.4626 13.6883 46.848 13.6883C56.7451 13.6883 66.4843 12.6083 75.5034 16.9509C79.2192 18.74 81.5124 22.5181 84.8979 24.6945C86.453 25.6942 91.6895 22.9662 93.2312 22.5719C98.2791 21.2805 103.674 20.6528 108.797 19.6631C110.533 19.3277 114.436 20.3134 114.811 18.248C116.342 9.82876 129.458 2.36769 137.413 2.36769C143.002 2.36769 146.095 3.1719 150.699 6.06262Z" fill="url(#paint0_linear_29_1029)" fill-opacity="0.6" stroke="#C2BAC7" stroke-width="4" stroke-linecap="round"/>
<path d="M118.31 97.178C107.126 97.178 102.036 110.355 102.036 119.78C102.036 123.249 103.11 125.846 105.574 128.31C108.839 131.575 114.017 131.092 116.894 133.97" stroke="#C2BAC7" stroke-width="3" stroke-linecap="round"/>
<path d="M56.046 107.791C60.3374 107.791 64.4207 107.541 68.2314 109.756C72.2231 112.077 76.044 117.167 76.5254 121.981C77.4346 131.074 72.5789 134.548 65.244 138.215" stroke="#C2BAC7" stroke-width="3" stroke-linecap="round"/>
<path d="M104.866 153.074C90.3381 153.074 87.8853 167.391 87.8853 179.253C87.8853 184.22 87.611 186.026 91.2658 189.315C92.6788 190.587 94.7574 190.909 96.3758 191.988" stroke="#C2BAC7" stroke-width="3" stroke-linecap="round"/>
<circle cx="60.6944" cy="74.024" r="20.2886" fill="#E3D8ED"/>
<circle cx="131.711" cy="67.2074" r="20.2886" fill="#E3D8ED"/>
<path d="M87.8515 67.4517C87.8515 65.5956 87.9209 61.4784 91.6112 60.1461C95.3014 58.8138 99.6397 60.7936 100.801 61.4691C101.963 62.1446 103.159 62.9169 103.159 64.2142C103.159 65.4189 103.125 66.2178 102.353 67.1831C102.147 67.441 100.801 68.5102 100.533 69.1376C100.889 69.7561 101.538 71.2248 101.279 72.1513C101.279 72.9478 100.457 74.2754 100.07 74.971C99.0535 76.8014 95.9079 76.3562 95.9079 74.1504V70.3013C95.9079 70.0227 94.9125 70.5559 94.6995 70.6742C94.0435 71.0387 92.8809 70.8085 92.1483 70.8085C90.6758 70.8085 89.8764 70.3359 88.6572 69.794C87.5928 69.321 87.8515 68.5802 87.8515 67.4517Z" fill="white" stroke="#C2BAC7" stroke-width="3" stroke-linecap="round"/>
<path d="M63.366 60.5954C63.9791 60.6567 64.6933 61.0709 65.2414 61.334C66.0276 61.7113 67.0059 61.7475 67.8472 61.9398C69.1789 62.2442 71.4348 62.4457 72.6272 61.6078C73.641 60.8954 74.8199 60.4078 75.8471 59.6659C76.6281 59.1018 76.7664 58.3451 77.2578 57.6079" stroke="#333333" stroke-width="4" stroke-linecap="round"/>
<path d="M105.49 53.1267C105.55 53.6703 106.234 53.8047 106.651 53.9067C107.277 54.0596 108.029 54.5008 108.626 54.7698C109.628 55.2205 111.759 55.361 112.734 54.8445C113.998 54.1753 115.154 53.7177 116.311 52.8362C117.107 52.2298 117.63 51.4421 118.336 50.7367" stroke="#333333" stroke-width="4" stroke-linecap="round"/>
<path d="M3.43481 10.6319C5.6417 10.4743 7.72649 9.54036 9.98403 9.54036C11.2467 9.54036 11.3287 10.3955 11.0271 11.6021C10.2303 14.7893 7.99019 17.5546 6.53963 20.4557C6.22615 21.0827 6.234 21.722 6.27281 22.4205C6.31271 23.1388 7.79297 22.8571 8.28608 22.8571C9.66688 22.8571 10.901 22.6497 12.2156 22.2022C13.2652 21.8449 14.7526 21.3289 15.8783 21.3289" stroke="#DCD6E0" stroke-width="3" stroke-linecap="round"/>
<path d="M17.4065 27.2232C17.498 26.4911 21.2405 25.9287 21.9424 25.9134C22.7395 25.8961 24.6106 25.4868 24.6106 26.6775C24.6106 27.8925 23.857 28.0242 23.3008 28.9697C22.5914 30.1756 21.3537 31.1319 20.5841 32.3413C20.1344 33.048 19.8079 33.4368 19.8079 34.3182C19.8079 35.4353 20.793 35.3006 21.7241 35.3006C23.23 35.3006 24.731 35.0823 26.1388 35.0823" stroke="#DCD6E0" stroke-width="3" stroke-linecap="round"/>
<defs>
<linearGradient id="paint0_linear_29_1029" x1="100.792" y1="2.36769" x2="100.792" y2="200.784" gradientUnits="userSpaceOnUse">
<stop offset="0.0572917" stop-color="#EEE6E9"/>
<stop offset="1" stop-color="#C2B6DA"/>
</linearGradient>
</defs>
</svg>
