<svg width="201" height="203" viewBox="0 0 201 203" fill="none" xmlns="http://www.w3.org/2000/svg">
<path d="M150.699 6.06262C154.214 8.26939 160.054 15.0173 160.054 19.3486L160.762 20.7637C163.187 25.6135 166.32 31.6175 167.798 37.0371C169.404 42.9271 172.605 48.3303 174.205 54.3325C174.732 56.3071 176.037 57.8638 176.485 59.8356C177.076 62.4377 177.341 65.0987 178.45 67.5399C180.81 72.7307 180.341 79.1168 181.438 84.5995C182.786 91.341 183.258 98.1434 184.268 104.961C186.06 117.059 184.925 130.177 182.853 142.146C181.737 148.595 178.369 154.527 175.935 160.503C173.115 167.424 168.478 174.717 163.946 180.628C152.92 195.01 133.615 196.631 116.895 199.417C103.519 201.647 89.3821 200.479 75.8573 200.479C66.5353 200.479 57.3477 200.627 48.2632 198.356C38.1796 195.835 16.424 190.136 16.424 176.894C16.424 169.522 17.0425 158.929 21.7305 152.798C23.2789 150.774 25.7371 148.139 28.2949 147.57C30.4876 147.083 33.9159 147.78 35.8027 146.313C37.1014 145.303 36.2351 140.12 36.2351 138.766C36.2351 133.679 36.0209 128.768 35.5275 123.711C34.6286 114.497 33.9951 104.354 31.9898 95.3305C27.895 76.9038 28.7832 57.634 31.125 39.1597C31.9007 33.041 34.5178 26.5529 37.8074 21.314C39.4394 18.7149 43.4627 13.6883 46.8481 13.6883C56.7453 13.6883 66.4844 12.6083 75.5035 16.9509C79.2193 18.74 81.5125 22.5181 84.898 24.6945C86.4531 25.6942 91.6896 22.9662 93.2313 22.5719C98.2792 21.2805 103.674 20.6528 108.797 19.6631C110.533 19.3277 114.436 20.3134 114.811 18.248C116.342 9.82876 129.458 2.36769 137.413 2.36769C143.003 2.36769 146.095 3.1719 150.699 6.06262Z" fill="url(#paint0_linear_2_562)" fill-opacity="0.75" stroke="#FA2D00" stroke-width="4" stroke-linecap="round"/>
<path d="M118.31 97.178C107.126 97.178 102.036 110.355 102.036 119.78C102.036 123.249 103.11 125.846 105.574 128.31C108.839 131.575 114.017 131.092 116.895 133.97" stroke="#FA2D00" stroke-width="3" stroke-linecap="round"/>
<path d="M56.0461 107.791C60.3375 107.791 64.4209 107.541 68.2315 109.756C72.2233 112.077 76.0441 117.167 76.5255 121.981C77.4347 131.074 72.579 134.548 65.2442 138.215" stroke="#FA2D00" stroke-width="3" stroke-linecap="round"/>
<path d="M104.866 153.074C90.3382 153.074 87.8854 167.391 87.8854 179.253C87.8854 184.22 87.6111 186.026 91.2659 189.315C92.679 190.587 94.7575 190.909 96.3759 191.988" stroke="#FA2D00" stroke-width="3" stroke-linecap="round"/>
<ellipse cx="60.6945" cy="70.7694" rx="20.2886" ry="17.8525" fill="#FF8762"/>
<ellipse cx="131.711" cy="64.7713" rx="20.2886" ry="17.8525" fill="#FF8762"/>
<path d="M95.0931 54.607C94.0101 54.1885 92.3705 54.5127 91.2511 54.5831C90.5423 54.6277 89.8455 54.7715 89.1505 54.9158L87.3846 55.4302C86.7894 55.827 86.8484 56.7119 86.8484 57.2975C86.8484 57.9623 86.9468 58.7811 87.2243 59.3915C87.3701 59.7124 87.607 60.2293 87.8136 60.5631C88.0202 60.8968 88.3489 61.3207 88.6739 61.736C89.256 62.4798 90.6988 63.6272 91.6807 63.6272C92.9673 63.6272 93.6524 63.0279 94.58 62.2073C96.0756 60.8843 96.2982 58.9135 96.2982 57.0529C96.2982 55.9137 96.2378 55.0493 95.0931 54.607Z" fill="white" stroke="#FA2D00" stroke-width="3" stroke-linecap="round"/>
<path d="M136.031 53.8888C136.845 55.0335 136.871 56.6653 137.67 57.889C138.095 58.5404 139.238 59.4442 139.998 59.6747C141.408 60.1025 142.623 60.199 144.013 59.4866C144.408 59.2846 145.203 58.0739 145.255 57.6212C145.352 56.7808 145.442 56.0178 145.331 55.1765C145.179 54.0129 144.264 53.2177 144.038 52.1404" stroke="white" stroke-width="3" stroke-linecap="round"/>
<path d="M67.1581 58.3138C66.7392 57.6283 66.1015 57.2666 66.2122 56.3808C66.2122 56.3133 66.3054 55.8647 66.352 55.6488C66.352 53.84 67.7614 51.7993 69.8313 51.7993C71.5183 51.7993 74.7503 51.4443 75.3835 53.502C75.8362 54.9733 76.0241 56.4093 75.6631 57.9437C75.2382 59.7498 73.0002 60.3866 71.3859 60.3866C70.4523 60.3866 69.6588 60.358 68.8032 59.9424C67.879 59.4936 67.6981 59.1974 67.1636 58.3228L67.1581 58.3138Z" fill="black" stroke="black" stroke-width="3" stroke-linecap="round"/>
<path d="M117.135 50.9768C117.135 49.0303 118.665 46.7806 120.689 46.4693L121.059 46.461C122.206 46.2062 123.247 46.0242 124.308 46.6996C124.918 47.0881 125.684 48.294 125.723 48.9862C125.755 49.5649 126.315 49.8861 126.315 50.5408C126.315 51.1227 126.519 52.1534 126.282 52.6877C125.283 54.9352 121.227 56.2061 119.052 54.9825C117.807 54.2823 117.135 52.3711 117.135 50.9768Z" fill="black" stroke="black" stroke-width="3" stroke-linecap="round"/>
<path d="M25.43 31.9952C24.4623 32.3823 23.6081 34.9104 23.1883 35.8898C22.4064 37.7143 22.5201 39.7356 22.26 41.6863C21.7899 45.2121 21.7618 48.8142 21.7618 52.3738" stroke="#FFE27A" stroke-width="3" stroke-linecap="round"/>
<path d="M16.0558 47.8905C16.0558 51.3122 16.9878 54.2378 18.5012 57.2646" stroke="#FFE27A" stroke-width="3" stroke-linecap="round"/>
<defs>
<linearGradient id="paint0_linear_2_562" x1="100.792" y1="2.36769" x2="100.792" y2="200.784" gradientUnits="userSpaceOnUse">
<stop offset="0.0677083" stop-color="#FFE194"/>
<stop offset="0.786458" stop-color="#FF7D54"/>
</linearGradient>
</defs>
</svg>
