<svg width="201" height="203" viewBox="0 0 201 203" fill="none" xmlns="http://www.w3.org/2000/svg">
<path d="M150.699 6.06262C154.214 8.26939 160.054 15.0173 160.054 19.3486L160.762 20.7637C163.187 25.6135 166.32 31.6175 167.798 37.0371C169.404 42.9271 172.605 48.3303 174.205 54.3325C174.732 56.3071 176.037 57.8638 176.485 59.8356C177.076 62.4377 177.341 65.0987 178.45 67.5399C180.81 72.7307 180.341 79.1168 181.438 84.5995C182.786 91.341 183.258 98.1434 184.268 104.961C186.06 117.059 184.925 130.177 182.853 142.146C181.737 148.595 178.369 154.527 175.935 160.503C173.115 167.424 168.478 174.717 163.946 180.628C152.92 195.01 133.615 196.631 116.895 199.417C103.519 201.647 89.3821 200.479 75.8573 200.479C66.5353 200.479 57.3477 200.627 48.2632 198.356C38.1796 195.835 16.424 190.136 16.424 176.894C16.424 169.522 17.0425 158.929 21.7305 152.798C23.2789 150.774 25.7371 148.139 28.2949 147.57C30.4876 147.083 33.9159 147.78 35.8027 146.313C37.1014 145.303 36.2351 140.12 36.2351 138.766C36.2351 133.679 36.0209 128.768 35.5275 123.711C34.6286 114.497 33.9951 104.354 31.9898 95.3305C27.895 76.9038 28.7832 57.634 31.125 39.1597C31.9007 33.041 34.5178 26.5529 37.8074 21.314C39.4394 18.7149 43.4627 13.6883 46.8481 13.6883C56.7453 13.6883 66.4844 12.6083 75.5035 16.9509C79.2193 18.74 81.5125 22.5181 84.898 24.6945C86.4531 25.6942 91.6896 22.9662 93.2313 22.5719C98.2792 21.2805 103.674 20.6528 108.797 19.6631C110.533 19.3277 114.436 20.3134 114.811 18.248C116.342 9.82876 129.458 2.36769 137.413 2.36769C143.003 2.36769 146.095 3.1719 150.699 6.06262Z" fill="url(#paint0_linear_2_563)" fill-opacity="0.75" stroke="#F3A100" stroke-width="4" stroke-linecap="round"/>
<path d="M118.31 97.178C107.126 97.178 102.036 110.355 102.036 119.78C102.036 123.249 103.11 125.846 105.574 128.31C108.839 131.575 114.017 131.092 116.895 133.97" stroke="#F3A100" stroke-width="3" stroke-linecap="round"/>
<path d="M56.0461 107.791C60.3375 107.791 64.4209 107.541 68.2315 109.756C72.2233 112.077 76.0441 117.167 76.5255 121.981C77.4347 131.074 72.579 134.548 65.2442 138.215" stroke="#F3A100" stroke-width="3" stroke-linecap="round"/>
<path d="M104.866 153.074C90.3382 153.074 87.8854 167.391 87.8854 179.253C87.8854 184.22 87.6111 186.026 91.2659 189.315C92.679 190.587 94.7575 190.909 96.3759 191.988" stroke="#F3A100" stroke-width="3" stroke-linecap="round"/>
<ellipse cx="60.6945" cy="67.2803" rx="20.2886" ry="15.6357" fill="#FFD953"/>
<ellipse cx="131.711" cy="62.027" rx="20.2886" ry="15.6357" fill="#FFD953"/>
<path d="M136.031 53.8888C136.845 55.0335 136.871 56.6653 137.67 57.889C138.095 58.5404 139.238 59.4442 139.998 59.6747C141.408 60.1025 142.623 60.199 144.013 59.4866C144.408 59.2846 145.203 58.0739 145.255 57.6212C145.352 56.7808 145.442 56.0178 145.331 55.1765C145.179 54.0129 144.264 53.2177 144.038 52.1404" stroke="white" stroke-width="3" stroke-linecap="round"/>
<path d="M154.658 69.8427C155.472 70.9873 155.499 72.6192 156.297 73.8428C156.722 74.4943 157.865 75.3981 158.625 75.6286C160.036 76.0564 161.25 76.1529 162.641 75.4405C163.035 75.2385 163.83 74.0278 163.882 73.575C163.979 72.7346 164.069 71.9717 163.958 71.1304C163.806 69.9668 162.891 69.1716 162.665 68.0943" stroke="white" stroke-width="3" stroke-linecap="round"/>
<path d="M63.2379 56.3252C62.789 56.2261 62.1443 56.2597 62.2023 55.9974C62.1984 55.9791 62.2641 55.8386 62.2974 55.7706C62.1945 55.2816 63.4576 54.4395 65.4831 54.0132C67.1339 53.6658 70.2765 52.9042 71.0131 53.3301C71.5399 53.6347 71.8055 53.9843 71.5396 54.4735C71.2265 55.0494 69.0728 55.6825 67.4931 56.0149C66.5795 56.2072 65.8013 56.3629 64.9404 56.4268C64.0105 56.4957 63.8166 56.4529 63.2438 56.3265L63.2379 56.3252Z" fill="black" stroke="black" stroke-width="3" stroke-linecap="round"/>
<path d="M111.505 50.3819C111.61 49.8546 113.232 49.5447 115.233 49.8569L115.597 49.9272C116.735 50.0829 117.766 50.2375 118.77 50.6285C119.347 50.8534 120.033 51.3302 120.033 51.5253C120.034 51.6884 120.565 51.8852 120.53 52.0625C120.498 52.2202 120.643 52.5396 120.381 52.6378C119.28 53.051 115.234 52.6006 113.167 51.8428C111.984 51.4092 111.429 50.7597 111.505 50.3819Z" fill="black" stroke="black" stroke-width="3" stroke-linecap="round"/>
<path d="M83.6822 63.8729C84.1005 60.403 86.7239 59.9715 89.5056 60.3069L92.6528 60.87C93.1417 60.929 94.4122 60.8702 94.8804 60.6793C95.7496 60.3249 96.7547 59.7838 97.6699 59.6377C98.6073 59.488 99.2708 59.5789 100.221 59.6934C101.55 59.8536 101.841 62.1676 101.884 63.165C101.75 64.2753 101.448 64.8871 100.845 65.6976C100.587 66.0451 99.545 66.5187 99.545 66.5187L99.3985 67.7339L99.1984 69.394C99.1146 70.089 98.3285 71.0173 97.0426 71.0571C95.2793 70.8446 94.9 69.5036 94.7479 68.5511C94.6631 68.02 94.7523 66.8982 94.7523 66.8982C94.7757 66.7042 93.6595 67.042 93.4345 67.0149C92.986 66.9608 92.4817 67.0327 91.918 66.9648C90.9923 66.996 90.2671 66.9086 89.4463 66.8097C88.2231 66.6622 86.4737 66.7393 85.4297 66.0499C84.7373 65.5927 83.5355 65.0899 83.6822 63.8729Z" fill="white" stroke="#F3A100" stroke-width="3" stroke-linecap="round"/>
<path d="M23.8553 41.0847C22.6103 42.1913 18.3353 44.4918 20.6278 46.7843C23.2303 49.3869 20.7651 50.2862 20.7651 53.1364C20.7651 54.9649 23.206 58.3523 21.6578 59.9004C19.0265 62.5317 20.4515 63.949 23.2372 65.8061" stroke="#FFEE51" stroke-width="3" stroke-linecap="round"/>
<path d="M21.1806 77.0219C23.0582 78.6225 23.5063 79.485 22.6683 81.8634C21.8045 84.3151 23.7212 85.569 23.9119 87.9643" stroke="#FFEE51" stroke-width="3" stroke-linecap="round"/>
<path d="M26.3275 97.944V99.1801" stroke="#FFEE51" stroke-width="3" stroke-linecap="round"/>
<defs>
<linearGradient id="paint0_linear_2_563" x1="100.792" y1="2.36769" x2="100.792" y2="200.784" gradientUnits="userSpaceOnUse">
<stop offset="0.296875" stop-color="#F7F09C"/>
<stop offset="0.848958" stop-color="#FFD84F"/>
</linearGradient>
</defs>
</svg>
