<svg width="201" height="203" viewBox="0 0 201 203" fill="none" xmlns="http://www.w3.org/2000/svg">
<path d="M150.699 6.06262C154.214 8.26939 160.054 15.0173 160.054 19.3486L160.762 20.7637C163.187 25.6135 166.32 31.6175 167.798 37.0371C169.404 42.9271 172.605 48.3303 174.205 54.3325C174.732 56.3071 176.037 57.8638 176.485 59.8356C177.076 62.4377 177.341 65.0987 178.45 67.5399C180.81 72.7307 180.341 79.1168 181.438 84.5995C182.786 91.341 183.258 98.1434 184.268 104.961C186.06 117.059 184.924 130.177 182.853 142.146C181.737 148.595 178.369 154.527 175.935 160.503C173.115 167.424 168.478 174.717 163.946 180.628C152.92 195.01 133.615 196.631 116.894 199.417C103.519 201.647 89.382 200.479 75.8571 200.479C66.5351 200.479 57.3475 200.627 48.2631 198.356C38.1795 195.835 16.4238 190.136 16.4238 176.894C16.4238 169.522 17.0424 158.929 21.7304 152.798C23.2788 150.774 25.737 148.139 28.2948 147.57C30.4875 147.083 33.9157 147.78 35.8025 146.313C37.1013 145.303 36.2349 140.12 36.2349 138.766C36.2349 133.679 36.0208 128.768 35.5274 123.711C34.6285 114.497 33.995 104.354 31.9897 95.3305C27.8949 76.9038 28.7831 57.634 31.1249 39.1597C31.9005 33.041 34.5177 26.5529 37.8072 21.314C39.4392 18.7149 43.4626 13.6883 46.848 13.6883C56.7451 13.6883 66.4843 12.6083 75.5034 16.9509C79.2192 18.74 81.5124 22.5181 84.8979 24.6945C86.453 25.6942 91.6895 22.9662 93.2312 22.5719C98.2791 21.2805 103.674 20.6528 108.797 19.6631C110.533 19.3277 114.436 20.3134 114.811 18.248C116.342 9.82876 129.458 2.36769 137.413 2.36769C143.002 2.36769 146.095 3.1719 150.699 6.06262Z" fill="url(#paint0_linear_2_560)" fill-opacity="0.6" stroke="#EF0073" stroke-width="4" stroke-linecap="round"/>
<path d="M118.31 97.178C107.126 97.178 102.036 110.355 102.036 119.78C102.036 123.249 103.11 125.846 105.574 128.31C108.839 131.575 114.017 131.092 116.894 133.97" stroke="#EF0073" stroke-width="3" stroke-linecap="round"/>
<path d="M56.046 107.791C60.3374 107.791 64.4207 107.541 68.2314 109.756C72.2231 112.077 76.044 117.167 76.5254 121.981C77.4346 131.074 72.5789 134.548 65.244 138.215" stroke="#EF0073" stroke-width="3" stroke-linecap="round"/>
<path d="M104.866 153.074C90.3381 153.074 87.8853 167.391 87.8853 179.253C87.8853 184.22 87.611 186.026 91.2658 189.315C92.6788 190.587 94.7574 190.909 96.3758 191.988" stroke="#EF0073" stroke-width="3" stroke-linecap="round"/>
<path d="M90.4941 59.5969H95.9826C96.3908 59.6063 97.2073 59.7827 97.2073 60.4133V64.6997C97.2073 67.5562 96.3908 70.1093 96.3908 72.9777C96.3908 76.5514 96.0111 80.1436 95.1434 83.6144C94.9593 84.3509 94.0373 86.54 93.125 86.54C92.5458 86.54 91.9835 85.118 91.6962 84.703C89.6618 81.7645 89.6721 78.3537 88.5437 75.1096C87.3615 71.7109 86.0939 66.3974 87.2056 62.84C87.9038 60.6059 87.8284 59.5969 90.4941 59.5969Z" fill="white" stroke="#EF0073" stroke-width="3" stroke-linecap="round"/>
<circle cx="60.6944" cy="74.024" r="20.2886" fill="#FF7898"/>
<circle cx="131.711" cy="67.2074" r="20.2886" fill="#FF7898"/>
<circle cx="68.8597" cy="58.0653" r="8" fill="black"/>
<circle cx="117.422" cy="53.8201" r="8" fill="black"/>
<path d="M67.5872 50.8693L69.0727 54.8838L73.0872 56.3693L69.0727 57.8548L67.5872 61.8693L66.1017 57.8548L62.0872 56.3693L66.1017 54.8838L67.5872 50.8693Z" fill="white"/>
<path d="M116.001 46.5065L117.486 50.521L121.501 52.0065L117.486 53.492L116.001 57.5065L114.515 53.492L110.501 52.0065L114.515 50.521L116.001 46.5065Z" fill="white"/>
<path d="M13.2272 24.1952C14.0672 28.4887 15.9209 32.2765 17.2615 36.2981" stroke="#FFB1C4" stroke-width="3" stroke-linecap="round"/>
<path d="M9.99976 32.6672C13.4812 32.6672 16.4065 29.4398 19.682 29.4398" stroke="#FFB1C4" stroke-width="3" stroke-linecap="round"/>
<path d="M80.2091 2.36769C80.7324 5.04255 81.8873 7.40239 82.7225 9.90782" stroke="#FFB1C4" stroke-width="3" stroke-linecap="round"/>
<path d="M78.1984 7.64579C80.3673 7.64579 82.1898 5.63509 84.2305 5.63509" stroke="#FFB1C4" stroke-width="3" stroke-linecap="round"/>
<circle cx="27.1707" cy="18.7743" r="2.05104" stroke="#FFB1C4" stroke-width="2"/>
<defs>
<linearGradient id="paint0_linear_2_560" x1="100.792" y1="2.36769" x2="100.792" y2="200.784" gradientUnits="userSpaceOnUse">
<stop offset="0.255208" stop-color="#FFA4A4"/>
<stop offset="1" stop-color="#FF508F"/>
</linearGradient>
</defs>
</svg>
