<svg width="202" height="201" viewBox="0 0 202 201" fill="none" xmlns="http://www.w3.org/2000/svg">
<path d="M6.10184 51.099C8.28958 47.6148 14.9793 41.8244 19.2733 41.8244L20.6762 41.123C25.4841 38.719 31.4364 35.6129 36.8092 34.1476C42.6484 32.5551 48.005 29.3824 53.9555 27.7957C55.913 27.2736 57.4563 25.9797 59.4111 25.5355C61.9907 24.9492 64.6288 24.6871 67.049 23.587C72.195 21.2479 78.526 21.7125 83.9614 20.6254C90.6448 19.2887 97.3886 18.8209 104.147 17.8196C116.141 16.0428 129.146 17.1688 141.012 19.2225C147.405 20.3291 153.286 23.6675 159.21 26.081C166.071 28.8763 173.302 33.4737 179.162 37.9665C193.42 48.8975 195.026 68.0358 197.789 84.6121C199.999 97.8719 198.841 111.887 198.841 125.295C198.841 134.537 198.989 143.645 196.737 152.652C194.238 162.648 188.587 184.216 175.46 184.216C168.151 184.216 157.65 183.603 151.572 178.955C149.565 177.42 146.953 174.983 146.389 172.448C145.906 170.274 146.597 166.875 145.142 165.005C144.141 163.717 139.003 164.576 137.66 164.576C132.618 164.576 127.749 164.788 122.735 165.277C113.601 166.169 103.546 166.797 94.5999 168.785C76.3321 172.844 57.2284 171.964 38.9135 169.642C32.8476 168.873 26.4154 166.278 21.2217 163.017C18.645 161.399 13.6618 157.411 13.6618 154.054C13.6618 144.243 12.5911 134.588 16.8962 125.646C18.6699 121.962 22.4154 119.689 24.573 116.333C25.5641 114.791 22.8597 109.6 22.4687 108.071C21.1885 103.067 20.5662 97.7187 19.585 92.6397C19.2525 90.9184 20.2297 87.0497 18.1822 86.6774C9.8355 85.1599 2.43878 72.1567 2.43878 64.2704C2.43878 58.7292 3.23605 55.663 6.10184 51.099Z" fill="url(#paint0_linear_2_564)" fill-opacity="0.75" stroke="#00C2AB" stroke-width="4" stroke-linecap="round"/>
<ellipse cx="61.6231" cy="143.092" rx="17.3491" ry="9.91376" transform="rotate(-90 61.6231 143.092)" fill="#E7FF53"/>
<ellipse cx="57.5108" cy="72.6882" rx="17.3491" ry="9.91376" transform="rotate(-90 57.5108 72.6882)" fill="#E7FF53"/>
<path d="M69.4261 120.074C65.8241 115.671 65.5682 108.223 65.5682 102.849L65.5682 100.044C65.5682 97.7286 65.9406 93.994 67.8284 92.4838C69.7797 90.9227 75.5853 92.6029 77.1029 94.1205C78.6867 95.7042 76.7066 97.1803 80.1425 95.991C81.7634 95.4299 82.7633 95.1337 84.507 95.1337C86.404 95.1337 89.015 94.6229 90.781 95.2116C92.4197 95.7578 89.8344 98.2222 89.4171 98.9526C88.6191 100.349 83.24 101.864 81.7012 102.304C78.8259 103.125 79.8448 103.765 80.2594 106.045C80.6794 108.355 81.8126 121.732 79.5969 123.035C76.3861 124.924 71.3575 122.434 69.4261 120.074Z" fill="white" stroke="#00C2AB" stroke-width="3" stroke-linecap="round"/>
<path d="M96.4314 83.2093C96.4314 94.2966 109.495 99.3423 118.838 99.3423C122.278 99.3423 124.852 98.2778 127.295 95.8351C130.532 92.5979 130.053 87.4651 132.906 84.6121" stroke="#00C2AB" stroke-width="3" stroke-linecap="round"/>
<path d="M106.953 144.936C106.953 140.681 106.705 136.633 108.901 132.855C111.202 128.898 116.248 125.11 121.021 124.633C130.035 123.732 133.479 128.545 137.115 135.817" stroke="#00C2AB" stroke-width="3" stroke-linecap="round"/>
<path d="M151.845 96.5366C151.845 110.939 166.039 113.371 177.798 113.371C182.722 113.371 184.513 113.643 187.774 110.02C189.035 108.619 189.354 106.558 190.424 104.954" stroke="#00C2AB" stroke-width="3" stroke-linecap="round"/>
<path d="M50.6273 75.441C50.0499 76.8125 50.0759 78.4206 49.7231 79.8639C49.2576 81.7683 48.465 83.6171 47.718 85.4269C47.3925 86.2158 47.1659 88.4944 46.3813 88.8866" stroke="black" stroke-width="4" stroke-linecap="round"/>
<path d="M43.5507 77.564C45.0722 80.192 47.4996 82.771 49.6445 84.9159C50.6244 85.8957 51.2582 88.3175 52.3965 88.8866" stroke="black" stroke-width="4" stroke-linecap="round"/>
<path d="M57.7041 120.214C57.1266 121.585 57.1526 123.193 56.7998 124.637C56.3343 126.541 55.5417 128.39 54.7948 130.2C54.4692 130.989 54.2426 133.267 53.4581 133.659" stroke="black" stroke-width="4" stroke-linecap="round"/>
<path d="M50.6274 122.337C52.1488 124.965 54.5763 127.544 56.7212 129.689C57.701 130.669 58.3349 133.09 59.4732 133.659" stroke="black" stroke-width="4" stroke-linecap="round"/>
<path d="M28.3215 28.292C28.6262 27.1952 29.3909 24.7535 30.8771 24.7535C32.1635 24.7535 33.4064 24.9747 34.686 24.9747C35.6193 24.9747 36.0268 25.1905 36.4061 24.3235C36.8252 23.3655 37.4822 22.5433 38.0034 21.6573C38.5987 20.6452 42.0573 21.8447 42.9671 21.8784C43.7545 21.9076 44.1798 22.3051 44.8961 21.7679C45.5731 21.2601 45.6171 19.6669 46.6777 19.6669" stroke="#8BFF9E" stroke-width="3" stroke-linecap="round"/>
<path d="M55.7452 18.7822C56.4284 18.4406 57.0682 18.0102 57.7356 17.6764" stroke="#8BFF9E" stroke-width="3" stroke-linecap="round"/>
<path d="M84.2747 12.8109C85.1055 11.9801 86.0631 11.0417 87.2726 11.0417C88.3548 11.0417 89.067 12.2195 90.0248 12.3563C91.0089 12.4969 91.2977 12.774 92.0152 11.7543C92.4558 11.1283 93.0443 10.3421 93.7845 10.157" stroke="#8BFF9E" stroke-width="3" stroke-linecap="round"/>
<defs>
<linearGradient id="paint0_linear_2_564" x1="2.43878" y1="100.576" x2="199.144" y2="100.576" gradientUnits="userSpaceOnUse">
<stop offset="0.197917" stop-color="#99FFB6"/>
<stop offset="1" stop-color="#FFEF9A"/>
</linearGradient>
</defs>
</svg>
